<?xml version="1.0" standalone="no"?>
<svg viewBox="0 0 200 200" xmlns="http://www.w3.org/2000/svg">
  <path fill="#D0E2FF" d="M40.4,-77C48.4,-65.4,48.2,-46.6,54.7,-32.5C61.1,-18.5,74.2,-9.2,73.7,-0.3C73.3,8.7,59.3,17.4,49.9,26.4C40.6,35.4,35.9,44.8,28.4,55C20.8,65.2,10.4,76.3,1,74.5C-8.4,72.7,-16.7,58.1,-31.1,51.8C-45.5,45.5,-65.8,47.7,-74.1,40.4C-82.3,33.2,-78.4,16.6,-77.4,0.6C-76.4,-15.4,-78.3,-30.9,-71.8,-41.2C-65.4,-51.5,-50.6,-56.7,-37.2,-65.1C-23.8,-73.5,-11.9,-85.2,2.2,-88.9C16.2,-92.6,32.4,-88.5,40.4,-77Z" transform="translate(100 100)" />
</svg>
